<?xml version="1.0" encoding="utf-8"?>
<!-- Generator: Adobe Illustrator 20.0.0, SVG Export Plug-In . SVG Version: 6.00 Build 0)  -->
<svg version="1.1" id="Layer_1" xmlns="http://www.w3.org/2000/svg" xmlns:xlink="http://www.w3.org/1999/xlink" x="0px" y="0px"
	 viewBox="0 0 127.04 270.53" style="enable-background:new 0 0 127.04 270.53;" xml:space="preserve">
<style type="text/css">
	.st0{fill-rule:evenodd;clip-rule:evenodd;}
	.st1{fill-rule:evenodd;clip-rule:evenodd;fill:#009DE2;}
</style>
<g>
	<circle class="st0" cx="63.52" cy="207.52" r="4.96"/>
</g>
<g>
	<path d="M117.28,0H9.77C4.38,0,0,4.38,0,9.77v251c0,5.39,4.38,9.77,9.77,9.77h107.51c5.39,0,9.77-4.38,9.77-9.77v-251
		C127.04,4.38,122.66,0,117.28,0z M63.52,64.23c28.89,0,52.39,23.5,52.39,52.39c0,28.89-23.5,52.39-52.39,52.39
		s-52.39-23.5-52.39-52.39C11.13,87.73,34.63,64.23,63.52,64.23z M63.52,62.81c-7.98,0-15.54,1.76-22.36,4.88V2.83h44.72V67.7
		C79.06,64.57,71.5,62.81,63.52,62.81z M9.77,2.83h29.98v65.53C21.97,77.16,9.72,95.48,9.72,116.62c0,29.67,24.14,53.81,53.81,53.81
		c29.67,0,53.8-24.14,53.8-53.81c0-21.14-12.26-39.46-30.03-48.25V2.83h29.98c3.82,0,6.93,3.11,6.93,6.93v169.44H2.83V9.77
		C2.83,5.94,5.94,2.83,9.77,2.83z M124.21,180.63v41.78H2.83v-41.78H124.21z M117.28,267.7H9.77c-3.82,0-6.93-3.11-6.93-6.93v-36.94
		h121.37v36.94C124.21,264.59,121.1,267.7,117.28,267.7z"/>
	<path d="M63.52,155.67c21.53,0,39.05-17.52,39.05-39.05S85.05,77.57,63.52,77.57c-21.53,0-39.05,17.52-39.05,39.05
		S41.99,155.67,63.52,155.67z M63.52,78.28c21.14,0,38.34,17.2,38.34,38.34c0,21.14-17.2,38.34-38.34,38.34s-38.34-17.2-38.34-38.34
		C25.18,95.48,42.38,78.28,63.52,78.28z"/>
	<path d="M63.52,146.13c16.27,0,29.51-13.24,29.51-29.51c0-16.27-13.24-29.51-29.51-29.51s-29.51,13.24-29.51,29.51
		C34.01,132.89,47.25,146.13,63.52,146.13z"/>
</g>
<g>
	<path d="M63.52,213.18c-3.12,0-5.66-2.54-5.66-5.67s2.54-5.66,5.66-5.66s5.66,2.54,5.66,5.66S66.64,213.18,63.52,213.18z
		 M63.52,203.27c-2.34,0-4.25,1.9-4.25,4.25s1.91,4.25,4.25,4.25s4.25-1.91,4.25-4.25S65.86,203.27,63.52,203.27z"/>
</g>
<g>
	<circle class="st1" cx="63.52" cy="116.62" r="28.15"/>
</g>
<g>
	<path d="M63.52,213.18c-3.12,0-5.66-2.54-5.66-5.67s2.54-5.66,5.66-5.66s5.66,2.54,5.66,5.66S66.64,213.18,63.52,213.18z
		 M63.52,203.27c-2.34,0-4.25,1.9-4.25,4.25s1.91,4.25,4.25,4.25s4.25-1.91,4.25-4.25S65.86,203.27,63.52,203.27z"/>
</g>
</svg>
