<?xml version="1.0" encoding="utf-8"?>
<!-- Generator: Adobe Illustrator 20.0.0, SVG Export Plug-In . SVG Version: 6.00 Build 0)  -->
<svg version="1.1" id="Layer_1" xmlns="http://www.w3.org/2000/svg" xmlns:xlink="http://www.w3.org/1999/xlink" x="0px" y="0px"
	 viewBox="0 0 187.1 46" style="enable-background:new 0 0 187.1 46;" xml:space="preserve">
<path d="M41,9.8c1.3-2.6,3.6-4,6.9-4c3.3,0,5.6,1.3,6.9,4c1,2.1,1.5,5.4,1.5,10.1c0,4.6-0.5,8-1.5,10.2c-1.3,2.6-3.6,3.9-6.9,4
	c-3.3,0-5.6-1.3-6.9-4c-1-2.1-1.5-5.5-1.5-10.2C39.5,15.2,40,11.8,41,9.8 M36,7.9c-2.4,2.5-3.6,6.6-3.7,12c0,5.5,1.2,9.5,3.6,12.1
	c2.5,2.6,6.5,3.9,12,3.9c5.5,0,9.5-1.3,12-3.9c2.4-2.5,3.6-6.5,3.6-12.1c0-5.4-1.2-9.4-3.7-12c-2.5-2.6-6.5-3.9-12-3.9
	C42.4,3.9,38.5,5.2,36,7.9z"/>
<path d="M76.4,6.6l2.5-0.1c3.7,0,5.6,1.9,5.6,5.6c0,4.6-2.7,6.8-8.1,6.6C76.4,18.7,76.4,6.6,76.4,6.6z M66,4.5v1.8
	c2,0,3.2,0.2,3.6,0.8c0.1,0.2,0.2,1.1,0.3,2.8v20.1c0,1.5-0.1,2.4-0.2,2.6c-0.5,0.8-1.7,1.1-3.7,0.9v1.9h14.6v-1.9
	c-2.1,0.2-3.4-0.1-3.9-0.8c-0.2-0.3-0.3-1.2-0.3-2.8V19.7L83.3,30c0.8,1.2,1.8,3,3,5.5h10.3v-1.9c-1.5-0.1-2.5-0.4-3.2-0.7l-1.7-1.9
	l-8-11.9c2.3-0.1,4.3-0.8,5.6-2.1c1.4-1.3,2.1-3.2,2.1-5.5c0-3.3-1.2-5.4-3.5-6.3l-7.8-0.8L66,4.5L66,4.5z"/>
<rect x="34.3" width="113.1" height="0.9"/>
<rect x="150.4" y="42.6" width="35.8" height="0.8"/>
<rect x="0.2" y="42.6" width="30.5" height="0.8"/>
<path d="M36.3,40.2l0.8,0c1.1,0,1.7,1,1.7,2.7c0,1.8-0.7,2.7-2.1,2.7l-0.4,0V40.2z M34.2,40.2l0.6,0.1l0,0.5v4.1l0,0.5
	c0,0.1-0.3,0.2-0.6,0.2V46h3.2c1.8,0,2.7-1.1,2.7-3.2c0-2-0.8-2.9-2.4-2.9h-3.5V40.2z"/>
<path d="M43.8,40.2h0.5c0.7,0,1.1,0.3,1.1,1.1c0,0.9-0.6,1.3-1.6,1.3V40.2z M41.7,40.2l0.7,0.1l0,0.5v4.6l-0.7,0.2V46h2.9v-0.4
	l-0.8-0.2l0-0.5v-2.1l2,3.2h2.1v-0.4c-0.5,0-0.8-0.2-1-0.5l-1.6-2.4c1,0,1.5-0.6,1.5-1.5c0-0.7-0.2-1.1-0.7-1.2l-1.6-0.1h-2.8
	L41.7,40.2L41.7,40.2z"/>
<path d="M51.1,43.1l0.8-2.2l0.8,2.2H51.1z M53.3,44.9l0.1,0.4l-0.8,0.3V46h2.9v-0.4c-0.4,0-0.8-0.4-1-1.1l-1.7-4.7h-1l-2.2,5.6
	l-0.7,0.2V46h2.3v-0.4c-0.6-0.1-0.8-0.2-0.8-0.4l0.5-1.7h1.9L53.3,44.9z"/>
<path d="M58.8,40.2h0.4c0.8,0,1.1,0.4,1.1,1.2c0,1.1-0.5,1.7-1.5,1.5L58.8,40.2L58.8,40.2z M61.8,41.5c0-1.1-0.6-1.6-1.7-1.6h-3.3
	v0.3l0.7,0.1l0.1,0.5v4.1l0,0.5l-0.7,0.2V46h2.9v-0.4l-0.8-0.1l0-2.1h0.8C61.1,43.4,61.8,42.7,61.8,41.5z"/>
<path d="M68,41.3v-1.4h-4.9v0.3l0.7,0.1l0,0.6v4l0,0.5l-0.7,0.2V46H68v-1.8h-0.6l-0.2,1.1c-0.2,0.2-0.5,0.3-1,0.3h-1v-2.7h0.5
	c0.5,0,0.7,0.3,0.7,0.9h0.5v-2.1h-0.5c0,0.6-0.2,0.9-0.7,0.9h-0.5v-2.3h0.9l1.1,0.1l0.2,0.9C67.4,41.3,68,41.3,68,41.3z"/>
<path d="M71.7,40.2h0.5c0.7,0,1.1,0.3,1.1,1.1c0,0.9-0.6,1.3-1.6,1.3L71.7,40.2L71.7,40.2z M74.7,45.1l-1.6-2.4
	c1.1,0,1.6-0.6,1.6-1.5c0-0.7-0.3-1.1-0.7-1.2l-1.5-0.1h-2.8v0.3l0.7,0.1l0.1,0.5v4.1l0,0.5l-0.7,0.2V46h2.9v-0.4l-0.8-0.2l0-0.5
	v-2.1l2,3.2h2.1v-0.4C75.3,45.6,74.9,45.4,74.7,45.1z"/>
<path d="M80.3,39.9v0.3c0.4,0,0.6,0.1,0.6,0.3l-1.1,2.2l-1-1.6l-0.3-0.5c0-0.1,0.2-0.3,0.6-0.4v-0.3h-3v0.3c0.4,0,0.9,0.5,1.4,1.4
	l1.1,1.6l0,0.5l0,1.8l-0.9,0.1V46H81v-0.4l-0.9-0.1L80,44.9v-1.8l0-0.2l1-1.6c0.4-0.8,0.9-1.1,1.3-1.2v-0.3L80.3,39.9L80.3,39.9z"/>
<polygon points="93.6,40.2 93.6,39.9 90.7,39.9 90.7,40.2 91.4,40.3 91.5,40.9 91.5,42.6 89,42.6 89,40.9 89.1,40.3 89.8,40.2 
	89.8,39.9 86.9,39.9 86.9,40.2 87.6,40.3 87.7,40.9 87.7,44.9 87.6,45.5 86.9,45.7 86.9,46 89.8,46 89.8,45.7 89.1,45.5 89,44.9 
	89,43 91.5,43 91.5,44.9 91.4,45.5 90.7,45.7 90.7,46 93.6,46 93.6,45.7 92.8,45.5 92.8,44.9 92.8,40.9 92.8,40.3 "/>
<path d="M97,43.1l0.8-2.2l0.7,2.2H97z M94.8,45.7V46h2.3v-0.4c-0.5-0.1-0.8-0.2-0.8-0.4l0.1-0.4l0.4-1.3h1.8l0.5,1.3l0.1,0.4
	l-0.8,0.3V46h3v-0.4c-0.4,0-0.8-0.4-1.1-1.1l-1.7-4.7h-1l-2.2,5.6L94.8,45.7z"/>
<path d="M104.8,40.2h0.5c0.7,0,1.1,0.3,1.1,1.1c0,0.9-0.6,1.3-1.7,1.3V40.2z M102.8,39.9v0.3l0.7,0.1l0,0.5v4.6l-0.7,0.2V46h2.9
	v-0.4c-0.5,0-0.9-0.2-0.9-0.7v-2.1l2,3.2h2.1v-0.4c-0.5,0-0.8-0.2-1-0.5l-1.6-2.4c1,0,1.6-0.6,1.6-1.5c0-0.7-0.2-1.1-0.7-1.2
	l-1.6-0.1L102.8,39.9L102.8,39.9z"/>
<path d="M112,40.2l0.8,0c1.1,0,1.7,1,1.7,2.7c0,1.8-0.7,2.7-2,2.7l-0.5,0V40.2z M115.9,42.8c0-2-0.9-2.9-2.5-2.9H110v0.3
	c0.3,0,0.6,0,0.6,0.1l0,0.5v4.1l0,0.5l-0.6,0.2V46h3.2C115,46,115.9,44.9,115.9,42.8z"/>
<path d="M122.5,39.9h-1l-1.3,4.7l-1-4c0-0.2,0.2-0.3,0.7-0.3v-0.3h-2.7v0.3c0.3,0,0.6,0.5,0.9,1.3l1.2,4.5h1l1.3-4.7l1.3,4.7h1
	l1.2-4.7c0.2-0.8,0.5-1.1,0.9-1.1v-0.3h-2v0.3c0.5,0,0.8,0.1,0.8,0.3l-0.9,4L122.5,39.9z"/>
<path d="M130.2,43.1h-1.5l0.7-2.2L130.2,43.1z M130.4,39.9h-1l-2.2,5.6l-0.7,0.2V46h2.3v-0.4c-0.5-0.1-0.8-0.2-0.8-0.4l0.5-1.7h1.8
	l0.5,1.3l0.1,0.4c0,0.1-0.2,0.2-0.8,0.3V46h3v-0.4c-0.5,0-0.8-0.4-1.1-1.1L130.4,39.9z"/>
<path d="M136.5,40.2h0.5c0.8,0,1.2,0.3,1.2,1.1c0,0.9-0.6,1.3-1.7,1.3V40.2z M139.6,41.2c0-0.7-0.2-1.1-0.7-1.2l-1.6-0.1h-2.8v0.3
	l0.7,0.1l0,0.5v4.1c0,0.5-0.2,0.8-0.8,0.7V46h2.9v-0.4c-0.5,0-0.9-0.2-0.9-0.7v-2.1l2,3.2h2v-0.4c-0.4,0-0.8-0.2-1-0.5l-1.6-2.4
	C139,42.7,139.6,42.2,139.6,41.2z"/>
<path d="M141.7,40.2l0.7,0.1l0,0.6v4l0,0.5c-0.1,0.1-0.3,0.2-0.7,0.2V46h4.9v-1.8h-0.7l-0.3,1.1c-0.1,0.2-0.4,0.3-0.9,0.3h-1v-2.7
	h0.6c0.4,0,0.6,0.3,0.6,0.9h0.5v-2.1h-0.5c0,0.6-0.2,0.9-0.6,0.9h-0.6v-2.3h0.9l1,0.1l0.3,0.9h0.7v-1.4h-4.9V40.2z"/>
<path d="M107.6,6.5h4.4c3,0,4.7,0.3,5.4,0.9c0.5,0.5,0.9,2,1.2,4.4h3.3V4.5H97.4v1.8c2,0,3.1,0.3,3.4,0.9l0.2,2.8v20.1l-0.2,2.8
	c-0.3,0.5-1.5,0.8-3.4,0.8v1.9h24.4v-8.6h-3.3c-0.3,2.7-0.7,4.5-1.2,5.1c-0.7,1-2.3,1.4-4.8,1.4h-4.9V19.8h2.7
	c1.2,0,2.2,0.5,2.6,1.3c0.3,0.6,0.6,1.6,0.8,3h2.4V13.7h-2.4c-0.1,1.4-0.4,2.4-0.8,3.1c-0.5,0.8-1.4,1.2-2.6,1.2h-2.7V6.5z"/>
<path d="M130.1,5.9c-2.6,1.6-3.9,3.9-3.9,7c0,3.4,1.5,5.9,4.5,7.4c1.1,0.5,2.4,1,4.3,1.6l4.5,1.3c2.2,0.9,3.3,2.5,3.3,4.9
	c0,1.8-0.6,3.2-1.8,4.3c-1.1,1-2.7,1.5-4.5,1.5c-2.5,0-4.3-0.7-5.3-1.9c-0.9-1.1-1.3-2.9-1.6-5.7h-3.4v7.8c3.6,1.1,6.9,1.5,10,1.5
	c3.7,0,6.7-0.7,9-2.1c2.8-1.7,4.1-4.3,4.1-7.8c0-2.6-0.7-4.6-2.2-5.9c-1.1-1-3-1.9-5.7-2.8l-2.8-0.8l-2.9-0.9
	c-2.2-1-3.2-2.4-3.2-4.3c0-3.5,2-5.3,6-5.3c3.7,0,5.7,2.2,5.9,6.5h3.2v-7c-3-1-6.1-1.4-9.3-1.4C135,3.9,132.3,4.6,130.1,5.9"/>
<path d="M154.9,10.4c0.5-3.5,1-5.6,1.6-6.4c0.8-1,2.7-1.4,5.7-1.4h2.5v30.2c0,2.2-0.2,3.5-0.6,3.8c-0.5,0.5-2.3,0.8-5.4,0.8v2.3H179
	v-2.3c-3,0-4.8-0.3-5.3-0.8c-0.4-0.3-0.6-1.6-0.6-3.8V2.5h2.5c3,0,4.9,0.5,5.7,1.4c0.6,0.8,1.1,2.8,1.5,6.4h4.2V0h-36.4v10.4H154.9z
	"/>
<path d="M0.3,0.2v2.3c2.5,0,3.9,0.3,4.4,1.1C4.9,3.9,5,4.4,5.1,5.1V35c0,0.6-0.2,1.1-0.4,1.4c-0.5,0.6-2,1-4.7,1v2.3h18.8v-2.3
	c-2.7,0-4.4-0.3-4.9-0.9c-0.3-0.3-0.5-1.6-0.5-3.7v-13h3.5c1.7,0,2.8,0.6,3.4,1.6c0.4,0.8,0.8,2.1,0.9,3.9h3.1V12h-3.1
	c-0.1,1.9-0.4,3.1-0.9,3.9c-0.6,1.1-1.8,1.5-3.4,1.5h-3.5V2.8H19c3.8,0,6.1,0.2,6.8,0.8c0.4,0.4,0.8,1.1,1,2.1l0.5,3.9h4.2V0.2H0.3z
	"/>
</svg>
