<?xml version="1.0" standalone="no"?>
<!DOCTYPE svg PUBLIC "-//W3C//DTD SVG 20010904//EN"
 "http://www.w3.org/TR/2001/REC-SVG-20010904/DTD/svg10.dtd">
<svg version="1.0" xmlns="http://www.w3.org/2000/svg"
 width="377.000000pt" height="139.000000pt" viewBox="0 0 377.000000 139.000000"
 preserveAspectRatio="xMidYMid meet">
<metadata>
Created by potrace 1.13, written by Peter Selinger 2001-2015
</metadata>
<g transform="translate(0.000000,139.000000) scale(0.100000,-0.100000)"
fill="#000000" stroke="none">
<path d="M975 1368 c-3 -7 -6 -239 -8 -515 l-2 -502 -129 419 -130 420 -157 0
c-155 0 -158 0 -164 -22 -4 -13 -88 -275 -186 -584 -98 -308 -179 -563 -179
-567 0 -10 228 -9 234 1 2 4 66 201 140 437 165 520 145 464 155 445 5 -8 32
-91 61 -184 29 -94 54 -176 57 -183 4 -10 -14 -13 -81 -13 l-85 0 -22 -72
c-11 -40 -25 -83 -30 -95 l-9 -23 380 0 380 0 -2 523 -3 522 -108 3 c-80 2
-109 -1 -112 -10z"/>
<path d="M2548 868 l-3 -343 -85 -3 c-72 -2 -92 1 -130 20 -153 78 -98 298 74
298 l46 0 0 100 0 100 -60 0 c-225 0 -405 -246 -331 -455 12 -32 21 -61 21
-62 0 -10 -468 -1 -502 9 -54 16 -94 56 -108 108 -16 60 -5 104 37 151 43 48
95 65 153 49 39 -11 100 -54 100 -71 0 -5 -40 -9 -89 -9 -85 0 -91 -1 -110
-26 -24 -30 -26 -52 -10 -88 18 -38 58 -46 244 -46 195 0 185 -5 185 86 0 133
-89 268 -218 327 -72 34 -207 31 -284 -5 -73 -34 -142 -103 -176 -176 -23 -49
-27 -70 -27 -152 0 -81 4 -103 26 -150 34 -73 100 -137 177 -172 l62 -28 910
0 c805 0 915 2 957 16 98 34 176 104 219 199 23 50 28 74 28 140 0 69 -4 90
-31 145 -47 101 -119 163 -223 194 -125 37 -253 4 -347 -90 -87 -88 -121 -218
-89 -342 9 -35 16 -66 16 -68 0 -2 -37 -4 -83 -4 -123 0 -121 -3 -125 174 l-3
146 70 0 71 0 0 100 0 99 -67 3 -68 3 -3 83 -3 82 -109 0 -110 0 -2 -342z
m805 -32 c71 -26 109 -78 109 -151 0 -151 -179 -216 -278 -102 -18 22 -36 55
-40 72 -14 75 34 153 112 180 48 17 50 17 97 1z"/>
<path d="M3639 1175 c-77 -42 -45 -165 43 -165 53 0 88 35 88 87 -1 75 -66
114 -131 78z"/>
</g>
</svg>
