<?xml version="1.0" encoding="utf-8"?>
<!-- Generator: Adobe Illustrator 17.0.0, SVG Export Plug-In . SVG Version: 6.00 Build 0)  -->
<!DOCTYPE svg PUBLIC "-//W3C//DTD SVG 1.1//EN" "http://www.w3.org/Graphics/SVG/1.1/DTD/svg11.dtd">
<svg version="1.1" id="Layer_1" xmlns="http://www.w3.org/2000/svg" xmlns:xlink="http://www.w3.org/1999/xlink" x="0px" y="0px"
	 width="125.908px" height="269.401px" viewBox="0 0 125.908 269.401" enable-background="new 0 0 125.908 269.401"
	 xml:space="preserve">
<path fill-rule="evenodd" clip-rule="evenodd" d="M62.954,87.251c15.906,0,28.8,12.894,28.8,28.8c0,15.906-12.894,28.8-28.8,28.8
	c-15.906,0-28.8-12.894-28.8-28.8C34.154,100.145,47.049,87.251,62.954,87.251"/>
<path d="M82.818,96.187c-5.083-5.083-12.106-8.228-19.864-8.228s-14.78,3.145-19.863,8.228c-5.083,5.083-8.228,12.106-8.228,19.863
	s3.145,14.78,8.228,19.864c5.083,5.083,12.106,8.228,19.863,8.228s14.78-3.145,19.864-8.228c5.083-5.083,8.228-12.107,8.228-19.864
	S87.901,101.271,82.818,96.187 M62.954,86.542c8.148,0,15.526,3.303,20.866,8.643c5.34,5.34,8.643,12.717,8.643,20.866
	c0,8.148-3.303,15.526-8.643,20.866c-5.34,5.34-12.717,8.643-20.866,8.643c-8.148,0-15.526-3.303-20.866-8.643
	s-8.643-12.717-8.643-20.866c0-8.148,3.303-15.526,8.643-20.866S54.806,86.542,62.954,86.542z"/>
<path d="M90.016,88.989c-6.926-6.926-16.494-11.21-27.062-11.21c-10.568,0-20.136,4.284-27.062,11.21
	c-6.926,6.925-11.21,16.493-11.21,27.061c0,10.568,4.284,20.136,11.21,27.061c6.925,6.926,16.493,11.21,27.062,11.21
	c10.568,0,20.136-4.284,27.062-11.21c6.926-6.926,11.21-16.494,11.21-27.061C101.226,105.482,96.941,95.914,90.016,88.989
	 M62.954,76.929c10.803,0,20.584,4.379,27.663,11.458c7.079,7.079,11.458,16.86,11.458,27.663c0,10.803-4.379,20.583-11.458,27.663
	c-7.079,7.079-16.86,11.458-27.663,11.458c-10.803,0-20.584-4.379-27.663-11.458c-7.08-7.08-11.458-16.86-11.458-27.663
	c0-10.803,4.379-20.584,11.458-27.663C42.37,81.308,52.151,76.929,62.954,76.929z"/>
<path d="M99.998,79.007c-9.48-9.48-22.577-15.344-37.043-15.344c-14.466,0-27.564,5.864-37.043,15.344
	c-9.48,9.48-15.344,22.577-15.344,37.043c0,14.466,5.864,27.563,15.344,37.044c9.48,9.48,22.577,15.344,37.043,15.344
	c14.466,0,27.563-5.864,37.043-15.344s15.344-22.577,15.344-37.044C115.342,101.584,109.478,88.487,99.998,79.007 M86.729,1.701
	v66.07c5.311,2.62,10.127,6.09,14.271,10.234c9.737,9.736,15.759,23.188,15.759,38.046c0,14.857-6.022,28.309-15.759,38.046
	c-9.737,9.737-23.188,15.759-38.046,15.759c-14.857,0-28.31-6.023-38.046-15.759c-9.737-9.737-15.759-23.189-15.759-38.046
	c0-14.857,6.023-28.31,15.759-38.046c4.143-4.143,8.96-7.614,14.271-10.234V1.701H9.2c-2.061,0-3.937,0.844-5.296,2.204
	C2.545,5.264,1.701,7.139,1.701,9.2v169.441h122.507V9.2c0-2.061-0.844-3.936-2.204-5.296c-1.359-1.359-3.235-2.204-5.296-2.204
	H86.729z M85.312,67.098V1.701H40.597v65.397c6.809-3.115,14.381-4.852,22.358-4.852C70.931,62.246,78.503,63.983,85.312,67.098z
	 M124.208,223.259H1.701v36.941c0,2.061,0.844,3.937,2.204,5.296S7.139,267.7,9.2,267.7h107.508c2.061,0,3.937-0.844,5.296-2.204
	c1.36-1.359,2.204-3.235,2.204-5.296V223.259z M1.701,221.842h122.507v-41.783H1.701V221.842z M9.2,0h107.508
	c2.531,0,4.831,1.035,6.498,2.702c1.667,1.667,2.702,3.967,2.702,6.499v251c0,2.531-1.035,4.831-2.702,6.498
	c-1.667,1.667-3.967,2.702-6.498,2.702H9.2c-2.531,0-4.831-1.035-6.498-2.702C1.035,265.032,0,262.732,0,260.201V9.2
	c0-2.531,1.035-4.831,2.702-6.499C4.369,1.035,6.669,0,9.2,0z"/>
<path fill-rule="evenodd" clip-rule="evenodd" d="M57.999,206.951c0,2.737,2.219,4.955,4.955,4.955c2.737,0,4.955-2.219,4.955-4.955
	c0-2.736-2.219-4.955-4.955-4.955C60.218,201.995,57.999,204.214,57.999,206.951"/>
</svg>
